<svg width="3611" height="1616" viewBox="0 0 3611 1616" fill="none" xmlns="http://www.w3.org/2000/svg">
<g clip-path="url(#clip0_48_4534)">
<rect width="1616" height="3611" transform="matrix(0 -1 1 0 0 1616)" fill="white"/>
<rect width="5649" height="3443" transform="translate(-886 -714)" fill="#334E3D"/>
<path d="M1155.33 908.6C1137.33 908.6 1119.33 906.05 1101.33 900.95C1083.33 896.15 1065.48 890 1047.78 882.5C1030.08 875.3 1012.68 868.25 995.582 861.35C982.682 867.95 968.732 873.8 953.732 878.9C938.732 884.3 923.132 887.3 906.932 887.9C887.132 887.9 872.582 884.3 863.282 877.1C853.982 869.9 849.332 861.35 849.332 851.45C849.332 841.55 853.982 832.4 863.282 824C872.582 815.6 885.482 811.4 901.982 811.4C916.382 811.4 931.382 814.7 946.982 821.3C962.582 827.9 978.782 835.55 995.582 844.25C1006.98 834.65 1018.23 823.85 1029.33 811.85C1040.73 799.55 1051.98 786.5 1063.08 772.7C1054.98 772.1 1046.28 770.6 1036.98 768.2C1027.98 765.5 1019.43 762.05 1011.33 757.85C1003.23 753.35 996.482 747.95 991.082 741.65C985.982 735.05 983.432 727.4 983.432 718.7C983.432 708.8 986.282 700.4 991.982 693.5C997.682 686.3 1005.03 680.45 1014.03 675.95C1023.33 671.45 1033.23 668.15 1043.73 666.05C1054.53 663.65 1064.88 662.45 1074.78 662.45C1086.48 662.45 1097.58 663.5 1108.08 665.6C1118.58 667.4 1128.18 669.95 1136.88 673.25C1147.68 660.05 1159.08 647.9 1171.08 636.8C1183.08 625.4 1195.53 616.25 1208.43 609.35C1221.63 602.45 1235.28 599 1249.38 599C1261.08 599 1269.63 602.15 1275.03 608.45C1280.73 614.45 1283.58 622.25 1283.58 631.85C1283.58 643.85 1279.38 657.35 1270.98 672.35C1262.88 687.35 1250.73 702.05 1234.53 716.45C1218.33 730.85 1198.38 743.15 1174.68 753.35C1151.28 763.55 1124.43 769.85 1094.13 772.25C1082.13 787.85 1069.23 802.55 1055.43 816.35C1041.93 830.15 1026.93 842.15 1010.43 852.35C1025.13 859.85 1039.98 867.2 1054.98 874.4C1070.28 881.9 1085.88 887.9 1101.78 892.4C1117.98 897.2 1134.48 899.6 1151.28 899.6C1160.88 899.6 1170.48 898.25 1180.08 895.55C1189.68 893.15 1197.78 888.65 1204.38 882.05C1210.98 875.75 1214.28 867.05 1214.28 855.95C1214.28 845.45 1210.23 837.95 1202.13 833.45C1194.33 828.95 1184.73 826.7 1173.33 826.7C1165.53 826.7 1156.98 828.05 1147.68 830.75C1138.68 833.15 1130.88 836.75 1124.28 841.55C1123.08 842.45 1122.03 842.9 1121.13 842.9C1120.23 842.9 1119.78 842.6 1119.78 842C1119.78 839 1123.08 835.85 1129.68 832.55C1136.28 828.95 1144.08 825.95 1153.08 823.55C1162.38 820.85 1170.48 819.5 1177.38 819.5C1183.98 819.5 1191.63 820.7 1200.33 823.1C1209.03 825.2 1216.68 828.95 1223.28 834.35C1229.88 839.75 1233.18 847.25 1233.18 856.85C1233.18 868.85 1229.13 878.6 1221.03 886.1C1212.93 893.9 1202.88 899.6 1190.88 903.2C1179.18 906.8 1167.33 908.6 1155.33 908.6ZM1100.43 764.15C1127.43 761.15 1151.43 754.4 1172.43 743.9C1193.73 733.4 1211.88 721.25 1226.88 707.45C1241.88 693.35 1253.28 679.25 1261.08 665.15C1268.88 651.05 1272.78 638.9 1272.78 628.7C1272.78 621.8 1270.83 616.25 1266.93 612.05C1263.33 607.85 1257.63 605.75 1249.83 605.75C1242.33 605.75 1234.53 608 1226.43 612.5C1218.33 616.7 1210.38 622.1 1202.58 628.7C1195.08 635.3 1188.18 642.05 1181.88 648.95C1175.88 655.55 1171.23 661.25 1167.93 666.05L1155.78 683.15C1164.48 689.15 1171.83 696.05 1177.83 703.85C1179.03 705.35 1179.63 707.45 1179.63 710.15C1179.63 711.95 1179.33 712.85 1178.73 712.85C1178.43 712.85 1177.98 712.4 1177.38 711.5C1170.48 702.8 1161.93 695.3 1151.73 689C1143.63 701 1135.38 713.45 1126.98 726.35C1118.58 738.95 1109.73 751.55 1100.43 764.15ZM1068.48 765.5C1077.18 755 1086.78 741.95 1097.28 726.35C1107.78 710.75 1119.33 695.15 1131.93 679.55C1113.93 672.65 1094.13 669.2 1072.53 669.2C1065.93 669.2 1058.43 670.4 1050.03 672.8C1041.93 674.9 1034.13 678.2 1026.63 682.7C1019.43 686.9 1013.43 692.15 1008.63 698.45C1003.83 704.75 1001.43 712.1 1001.43 720.5C1001.43 730.1 1005.03 738.2 1012.23 744.8C1019.43 751.4 1028.28 756.35 1038.78 759.65C1049.28 762.95 1059.18 764.9 1068.48 765.5ZM906.932 880.7C920.432 880.7 933.332 878.3 945.632 873.5C957.932 869 969.782 862.85 981.182 855.05C965.582 848.75 950.432 843.5 935.732 839.3C921.332 834.8 907.532 832.55 894.332 832.55C882.032 832.55 873.182 834.35 867.782 837.95C862.382 841.55 859.682 845.9 859.682 851C859.682 857.6 864.032 864.2 872.732 870.8C881.432 877.4 892.832 880.7 906.932 880.7ZM1278.85 869.45C1267.75 869.45 1262.2 863.15 1262.2 850.55C1262.2 843.35 1264.3 834.8 1268.5 824.9C1272.7 814.7 1279 804.05 1287.4 792.95C1293.4 785.45 1300.75 777.5 1309.45 769.1C1318.15 760.4 1327.6 752.15 1337.8 744.35C1348.3 736.55 1358.95 730.25 1369.75 725.45C1380.55 720.35 1391.05 717.8 1401.25 717.8C1405.75 717.8 1408.9 718.55 1410.7 720.05C1412.5 721.25 1413.7 722.6 1414.3 724.1C1414.9 725.3 1414.9 726.2 1414.3 726.8C1414 727.4 1413.55 727.55 1412.95 727.25C1411.75 726.65 1409.35 726.35 1405.75 726.35C1394.95 726.35 1382.05 731.6 1367.05 742.1C1352.35 752.3 1337.8 765.65 1323.4 782.15C1313.2 793.55 1304.8 804.8 1298.2 815.9C1291.6 826.7 1287.25 835.7 1285.15 842.9C1284.55 845.3 1284.25 847.4 1284.25 849.2C1284.25 853.4 1285.9 855.5 1289.2 855.5C1291.3 855.5 1294.15 854.6 1297.75 852.8C1301.35 850.7 1306 847.25 1311.7 842.45C1320.7 834.65 1329.55 825.5 1338.25 815C1347.25 804.5 1356.1 793.85 1364.8 783.05C1373.5 771.95 1381.9 761.75 1390 752.45C1398.4 743.15 1406.35 736.1 1413.85 731.3C1423.45 725 1430.05 721.4 1433.65 720.5C1437.55 719.6 1440.7 719 1443.1 718.7C1441.6 720.5 1438.3 724.7 1433.2 731.3C1428.1 737.9 1422.7 744.95 1417 752.45C1411.3 759.65 1406.65 765.65 1403.05 770.45C1397.65 778.25 1391.8 786.65 1385.5 795.65C1379.5 804.65 1373.95 813.2 1368.85 821.3C1364.05 829.1 1360.75 835.55 1358.95 840.65C1357.45 845.75 1356.7 849.5 1356.7 851.9C1356.7 856.7 1358.65 859.1 1362.55 859.1C1365.25 859.1 1368.4 858.05 1372 855.95C1375.9 853.55 1379.8 850.85 1383.7 847.85C1388.8 843.65 1393.6 839.3 1398.1 834.8C1402.6 830 1407.25 824.75 1412.05 819.05C1413.25 819.05 1413.85 819.95 1413.85 821.75C1413.85 824.45 1413.25 826.55 1412.05 828.05C1408.15 832.55 1403.35 837.5 1397.65 842.9C1392.25 848.3 1386.85 853.1 1381.45 857.3C1377.55 860.6 1373.05 863.45 1367.95 865.85C1362.85 868.25 1357.9 869.45 1353.1 869.45C1346.2 869.45 1341.4 867.8 1338.7 864.5C1336 861.2 1334.65 857 1334.65 851.9C1334.65 845.9 1336 839.45 1338.7 832.55C1341.4 825.35 1344.4 818.6 1347.7 812.3C1343.8 817.1 1338.85 822.95 1332.85 829.85C1326.85 836.45 1321.45 842 1316.65 846.5C1310.05 852.5 1303.75 857.9 1297.75 862.7C1291.75 867.2 1285.45 869.45 1278.85 869.45ZM1420.39 869C1413.19 869 1408.09 867.5 1405.09 864.5C1402.09 861.2 1400.59 857.15 1400.59 852.35C1400.59 847.25 1401.79 841.7 1404.19 835.7C1406.59 829.7 1409.44 823.7 1412.74 817.7C1418.44 808.1 1425.49 798.5 1433.89 788.9C1442.59 779.3 1451.44 770.45 1460.44 762.35C1469.74 754.25 1477.84 747.5 1484.74 742.1C1491.34 736.4 1498.24 731.9 1505.44 728.6C1501.54 728.9 1497.64 729.2 1493.74 729.5C1490.14 729.8 1486.69 730.1 1483.39 730.4C1477.09 730.7 1471.24 731.45 1465.84 732.65C1460.74 733.55 1455.94 735.35 1451.44 738.05C1452.94 732.95 1456.09 728.75 1460.89 725.45C1465.99 721.85 1471.09 719.9 1476.19 719.6C1481.29 719 1487.59 719 1495.09 719.6C1502.59 720.2 1509.49 720.5 1515.79 720.5C1517.59 720.5 1519.69 720.35 1522.09 720.05C1524.79 719.75 1526.89 719 1528.39 717.8C1528.39 720.8 1526.14 723.35 1521.64 725.45C1519.84 726.35 1518.04 727.25 1516.24 728.15C1514.44 729.05 1512.94 729.95 1511.74 730.85C1508.74 732.95 1505.74 735.35 1502.74 738.05C1500.04 740.75 1497.19 743.6 1494.19 746.6C1471.09 769.1 1450.99 795.5 1433.89 825.8C1431.19 830.6 1428.79 835.25 1426.69 839.75C1424.89 843.95 1423.99 847.4 1423.99 850.1C1423.99 853.4 1425.79 855.05 1429.39 855.05C1434.79 855.05 1441.54 852.5 1449.64 847.4C1457.74 842.3 1466.59 835.4 1476.19 826.7C1485.79 818 1495.24 808.1 1504.54 797C1507.84 793.1 1512.04 787.4 1517.14 779.9C1522.54 772.4 1527.49 765.05 1531.99 757.85C1536.79 750.65 1539.94 745.7 1541.44 743C1548.34 731.3 1555.09 724.25 1561.69 721.85C1568.59 719.15 1574.89 718.1 1580.59 718.7C1578.49 721.7 1574.59 726.65 1568.89 733.55C1563.49 740.45 1557.04 748.25 1549.54 756.95C1542.34 765.65 1534.99 774.35 1527.49 783.05C1520.29 791.45 1513.69 798.95 1507.69 805.55C1501.99 812.15 1497.94 816.8 1495.54 819.5C1487.74 827.6 1479.64 835.55 1471.24 843.35C1463.14 850.85 1454.74 857 1446.04 861.8C1437.64 866.6 1429.09 869 1420.39 869ZM1542.08 869.45C1530.98 869.45 1525.43 863.15 1525.43 850.55C1525.43 843.35 1527.53 834.8 1531.73 824.9C1535.93 814.7 1542.23 804.05 1550.63 792.95C1556.63 785.45 1563.98 777.5 1572.68 769.1C1581.38 760.4 1590.83 752.15 1601.03 744.35C1611.53 736.55 1622.18 730.25 1632.98 725.45C1643.78 720.35 1654.28 717.8 1664.48 717.8C1668.98 717.8 1672.13 718.55 1673.93 720.05C1675.73 721.25 1676.93 722.6 1677.53 724.1C1678.13 725.3 1678.13 726.2 1677.53 726.8C1677.23 727.4 1676.78 727.55 1676.18 727.25C1674.98 726.65 1672.58 726.35 1668.98 726.35C1658.18 726.35 1645.28 731.6 1630.28 742.1C1615.58 752.3 1601.03 765.65 1586.63 782.15C1576.43 793.55 1568.03 804.8 1561.43 815.9C1554.83 826.7 1550.48 835.7 1548.38 842.9C1547.78 845.3 1547.48 847.4 1547.48 849.2C1547.48 853.4 1549.13 855.5 1552.43 855.5C1554.53 855.5 1557.38 854.6 1560.98 852.8C1564.58 850.7 1569.23 847.25 1574.93 842.45C1583.93 834.65 1592.78 825.5 1601.48 815C1610.48 804.5 1619.33 793.85 1628.03 783.05C1636.73 771.95 1645.13 761.75 1653.23 752.45C1661.63 743.15 1669.58 736.1 1677.08 731.3C1686.68 725 1693.28 721.4 1696.88 720.5C1700.78 719.6 1703.93 719 1706.33 718.7C1704.83 720.5 1701.53 724.7 1696.43 731.3C1691.33 737.9 1685.93 744.95 1680.23 752.45C1674.53 759.65 1669.88 765.65 1666.28 770.45C1660.88 778.25 1655.03 786.65 1648.73 795.65C1642.73 804.65 1637.18 813.2 1632.08 821.3C1627.28 829.1 1623.98 835.55 1622.18 840.65C1620.68 845.75 1619.93 849.5 1619.93 851.9C1619.93 856.7 1621.88 859.1 1625.78 859.1C1628.48 859.1 1631.63 858.05 1635.23 855.95C1639.13 853.55 1643.03 850.85 1646.93 847.85C1652.03 843.65 1656.83 839.3 1661.33 834.8C1665.83 830 1670.48 824.75 1675.28 819.05C1676.48 819.05 1677.08 819.95 1677.08 821.75C1677.08 824.45 1676.48 826.55 1675.28 828.05C1671.38 832.55 1666.58 837.5 1660.88 842.9C1655.48 848.3 1650.08 853.1 1644.68 857.3C1640.78 860.6 1636.28 863.45 1631.18 865.85C1626.08 868.25 1621.13 869.45 1616.33 869.45C1609.43 869.45 1604.63 867.8 1601.93 864.5C1599.23 861.2 1597.88 857 1597.88 851.9C1597.88 845.9 1599.23 839.45 1601.93 832.55C1604.63 825.35 1607.63 818.6 1610.93 812.3C1607.03 817.1 1602.08 822.95 1596.08 829.85C1590.08 836.45 1584.68 842 1579.88 846.5C1573.28 852.5 1566.98 857.9 1560.98 862.7C1554.98 867.2 1548.68 869.45 1542.08 869.45ZM1744.82 869.45C1738.52 869.45 1734.02 867.8 1731.32 864.5C1728.62 860.9 1727.27 856.4 1727.27 851C1727.27 842.9 1730.12 833.75 1735.82 823.55C1741.52 813.05 1748.87 802.1 1757.87 790.7C1767.17 779.3 1776.77 768.05 1786.67 756.95C1796.87 745.85 1806.47 735.65 1815.47 726.35C1810.97 726.35 1806.02 727.55 1800.62 729.95C1795.52 732.35 1790.27 735.2 1784.87 738.5C1776.77 743.9 1767.92 751.1 1758.32 760.1C1748.72 769.1 1739.12 778.7 1729.52 788.9C1719.92 799.1 1710.77 809.15 1702.07 819.05C1695.17 827.15 1689.62 833.9 1685.42 839.3C1681.52 844.7 1678.07 849.65 1675.07 854.15C1672.37 858.35 1669.37 863.15 1666.07 868.55C1661.27 868.55 1658.87 865.7 1658.87 860C1658.87 854 1660.82 846.8 1664.72 838.4C1668.32 830 1671.47 823.4 1674.17 818.6C1681.97 805.4 1690.82 791.6 1700.72 777.2C1710.92 762.5 1720.37 749.6 1729.07 738.5C1733.57 732.5 1738.37 728.15 1743.47 725.45C1748.57 722.45 1752.92 720.65 1756.52 720.05C1760.12 719.15 1761.92 718.7 1761.92 718.7C1760.12 721.4 1756.37 727.1 1750.67 735.8C1744.97 744.5 1738.37 754.7 1730.87 766.4C1723.37 778.1 1715.72 789.95 1707.92 801.95C1720.22 787.85 1733.42 774.2 1747.52 761C1761.62 747.5 1775.12 736.55 1788.02 728.15C1791.92 725.45 1795.97 723.2 1800.17 721.4C1804.37 719.6 1808.72 718.7 1813.22 718.7C1821.32 718.7 1825.37 721.85 1825.37 728.15C1825.37 732.95 1822.52 738.65 1816.82 745.25C1809.92 753.35 1802.42 762.35 1794.32 772.25C1786.22 782.15 1778.42 792.2 1770.92 802.4C1763.72 812.6 1757.72 822.05 1752.92 830.75C1748.42 839.45 1746.17 846.5 1746.17 851.9C1746.17 854.9 1746.92 857.15 1748.42 858.65C1750.22 859.85 1751.72 860.45 1752.92 860.45C1757.42 860.45 1762.37 858.65 1767.77 855.05C1773.47 851.45 1778.87 847.25 1783.97 842.45C1789.37 837.35 1794.02 832.55 1797.92 828.05C1802.12 823.55 1804.82 820.55 1806.02 819.05C1807.22 819.05 1807.82 819.95 1807.82 821.75C1807.82 824.45 1807.22 826.55 1806.02 828.05C1801.82 832.55 1796.27 838.1 1789.37 844.7C1782.47 851.3 1775.12 857.15 1767.32 862.25C1759.52 867.05 1752.02 869.45 1744.82 869.45ZM1861.42 882.95C1858.72 880.85 1857.37 877.7 1857.37 873.5C1857.37 869.3 1858.87 865.1 1861.87 860.9C1864.57 856.4 1869.67 853.1 1877.17 851C1881.07 849.8 1886.17 849.2 1892.47 849.2C1902.97 849.2 1916.17 850.7 1932.07 853.7C1948.27 856.7 1968.37 859.85 1992.37 863.15C1997.77 863.75 2003.32 864.35 2009.02 864.95C2014.72 865.55 2020.72 865.85 2027.02 865.85C2030.92 865.85 2034.82 865.7 2038.72 865.4C2042.62 865.1 2046.52 864.65 2050.42 864.05C2069.92 860.75 2087.62 852.95 2103.52 840.65C2119.42 828.05 2130.97 812.15 2138.17 792.95C2140.57 786.65 2141.77 779.75 2141.77 772.25C2141.77 764.75 2139.97 758 2136.37 752C2132.77 745.7 2126.17 742.55 2116.57 742.55C2111.77 742.55 2107.27 743.15 2103.07 744.35C2098.87 745.25 2094.67 747.65 2090.47 751.55C2089.57 749.15 2089.12 747.2 2089.12 745.7C2089.12 740.6 2094.82 737.6 2106.22 736.7C2109.52 736.7 2112.82 736.55 2116.12 736.25C2119.42 735.65 2122.57 734.6 2125.57 733.1C2141.77 726.2 2154.07 717.95 2162.47 708.35C2171.17 698.45 2177.32 687.05 2180.92 674.15C2181.52 671.75 2181.97 669.65 2182.27 667.85C2182.57 665.75 2182.72 663.65 2182.72 661.55C2182.72 651.35 2178.97 642.65 2171.47 635.45C2160.07 645.65 2148.67 657.65 2137.27 671.45C2126.17 685.25 2115.37 699.5 2104.87 714.2C2094.37 728.9 2084.47 743 2075.17 756.5C2067.97 766.4 2060.47 776.9 2052.67 788C2044.87 799.1 2036.77 809.6 2028.37 819.5C2019.97 829.1 2011.27 837.05 2002.27 843.35C1993.27 849.35 1984.12 852.65 1974.82 853.25C1982.02 848.15 1989.37 841.1 1996.87 832.1C2004.37 822.8 2011.87 812.6 2019.37 801.5C2026.87 790.4 2034.07 779.3 2040.97 768.2C2048.17 757.1 2054.92 747.2 2061.22 738.5C2075.32 718.1 2091.07 698 2108.47 678.2C2125.87 658.4 2143.42 641.6 2161.12 627.8C2154.82 624.5 2147.02 621.95 2137.72 620.15C2128.72 618.35 2118.07 617.45 2105.77 617.45C2085.67 617.45 2066.47 620.6 2048.17 626.9C2030.17 632.9 2013.67 640.85 1998.67 650.75C1983.67 660.65 1970.77 671.75 1959.97 684.05C1949.17 696.05 1940.77 708.05 1934.77 720.05C1928.77 732.05 1925.77 743.15 1925.77 753.35C1925.77 762.95 1928.77 771.05 1934.77 777.65C1941.07 784.25 1950.97 788.15 1964.47 789.35C1966.57 789.35 1967.62 789.8 1967.62 790.7C1967.62 791.9 1966.27 792.5 1963.57 792.5C1945.87 791 1932.82 785.9 1924.42 777.2C1916.02 768.5 1911.82 757.85 1911.82 745.25C1911.82 731.75 1916.17 717.35 1924.87 702.05C1933.87 686.75 1946.77 672.2 1963.57 658.4C1980.37 644.6 2000.62 633.35 2024.32 624.65C2048.02 615.95 2074.72 611.6 2104.42 611.6C2118.82 611.6 2131.42 612.5 2142.22 614.3C2153.02 615.8 2162.17 618.2 2169.67 621.5C2180.17 614 2190.52 608.15 2200.72 603.95C2211.22 599.75 2221.12 597.65 2230.42 597.65C2235.82 597.65 2241.22 598.55 2246.62 600.35C2252.02 601.85 2256.52 604.55 2260.12 608.45C2264.02 612.35 2265.97 618.05 2265.97 625.55C2264.17 619.55 2259.97 614.75 2253.37 611.15C2246.77 607.25 2239.87 605.3 2232.67 605.3C2224.27 605.3 2215.72 607.25 2207.02 611.15C2198.32 615.05 2189.62 620.45 2180.92 627.35C2188.42 632.15 2193.67 637.85 2196.67 644.45C2199.97 651.05 2201.62 657.8 2201.62 664.7C2201.62 674 2198.47 683.9 2192.17 694.4C2186.17 704.6 2177.17 713.75 2165.17 721.85C2153.47 729.95 2139.07 735.5 2121.97 738.5C2129.17 738.5 2136.07 740.15 2142.67 743.45C2149.27 746.75 2154.52 751.55 2158.42 757.85C2160.82 761.75 2162.47 765.65 2163.37 769.55C2164.27 773.45 2164.72 777.5 2164.72 781.7C2164.72 791 2162.47 800.3 2157.97 809.6C2153.47 818.6 2147.47 826.85 2139.97 834.35C2132.77 841.85 2124.97 848.15 2116.57 853.25C2103.67 860.45 2090.02 865.4 2075.62 868.1C2061.52 870.8 2046.82 872.15 2031.52 872.15C2019.52 872.15 2006.02 871.25 1991.02 869.45C1976.32 867.95 1961.32 866.6 1946.02 865.4C1942.42 865.1 1938.82 864.95 1935.22 864.95C1931.62 864.65 1927.72 864.5 1923.52 864.5C1910.62 864.5 1898.17 865.85 1886.17 868.55C1874.47 870.95 1866.22 875.75 1861.42 882.95ZM2208.9 872.15C2195.1 872.15 2185.35 869.15 2179.65 863.15C2173.95 857.15 2171.1 849.05 2171.1 838.85C2171.1 828.95 2173.8 818.6 2179.2 807.8C2184.9 796.7 2191.95 786.2 2200.35 776.3C2205.45 770.3 2211.75 764 2219.25 757.4C2226.75 750.8 2234.85 744.65 2243.55 738.95C2252.25 732.95 2260.8 728.15 2269.2 724.55C2277.9 720.65 2285.55 718.7 2292.15 718.7C2295.75 718.7 2299.05 719.6 2302.05 721.4C2305.05 722.9 2306.55 726.35 2306.55 731.75C2306.55 739.25 2302.95 746.45 2295.75 753.35C2288.55 759.95 2280.45 766.1 2271.45 771.8C2261.25 778.4 2250.6 783.95 2239.5 788.45C2228.4 792.95 2218.8 796.4 2210.7 798.8C2206.2 806 2202.6 813.35 2199.9 820.85C2197.2 828.35 2195.85 835.7 2195.85 842.9C2195.85 850.7 2197.65 856.1 2201.25 859.1C2205.15 861.8 2209.65 863.15 2214.75 863.15C2224.05 863.15 2232.45 861.05 2239.95 856.85C2247.75 852.35 2254.95 846.65 2261.55 839.75C2268.15 832.85 2274.45 825.95 2280.45 819.05C2281.65 819.05 2282.25 819.95 2282.25 821.75C2282.25 824.45 2281.65 826.55 2280.45 828.05C2274.45 834.95 2267.85 841.85 2260.65 848.75C2253.75 855.65 2246.1 861.35 2237.7 865.85C2229.3 870.05 2219.7 872.15 2208.9 872.15ZM2216.1 792.5C2223.9 789.8 2233.05 786.05 2243.55 781.25C2254.35 776.45 2263.8 771.2 2271.9 765.5C2273.7 764.3 2276.85 761.9 2281.35 758.3C2285.85 754.4 2290.05 750.2 2293.95 745.7C2297.85 740.9 2299.8 736.7 2299.8 733.1C2299.8 728.3 2297.4 725.9 2292.6 725.9C2287.5 725.9 2281.65 728.15 2275.05 732.65C2268.75 737.15 2263.65 741.05 2259.75 744.35C2252.55 750.95 2245.05 758.3 2237.25 766.4C2229.45 774.5 2222.4 783.2 2216.1 792.5ZM2288.71 869.45C2277.61 869.45 2272.06 863.15 2272.06 850.55C2272.06 843.35 2274.16 834.8 2278.36 824.9C2282.56 814.7 2288.86 804.05 2297.26 792.95C2303.26 785.45 2310.61 777.5 2319.31 769.1C2328.01 760.4 2337.46 752.15 2347.66 744.35C2358.16 736.55 2368.81 730.25 2379.61 725.45C2390.41 720.35 2400.91 717.8 2411.11 717.8C2415.61 717.8 2418.76 718.55 2420.56 720.05C2422.36 721.25 2423.56 722.6 2424.16 724.1C2424.76 725.3 2424.76 726.2 2424.16 726.8C2423.86 727.4 2423.41 727.55 2422.81 727.25C2421.61 726.65 2419.21 726.35 2415.61 726.35C2404.81 726.35 2391.91 731.6 2376.91 742.1C2362.21 752.3 2347.66 765.65 2333.26 782.15C2323.06 793.55 2314.66 804.8 2308.06 815.9C2301.46 826.7 2297.11 835.7 2295.01 842.9C2294.41 845.3 2294.11 847.4 2294.11 849.2C2294.11 853.4 2295.76 855.5 2299.06 855.5C2301.16 855.5 2304.01 854.6 2307.61 852.8C2311.21 850.7 2315.86 847.25 2321.56 842.45C2330.56 834.65 2339.41 825.5 2348.11 815C2357.11 804.5 2365.96 793.85 2374.66 783.05C2383.36 771.95 2391.76 761.75 2399.86 752.45C2408.26 743.15 2416.21 736.1 2423.71 731.3C2433.31 725 2439.91 721.4 2443.51 720.5C2447.41 719.6 2450.56 719 2452.96 718.7C2451.46 720.5 2448.16 724.7 2443.06 731.3C2437.96 737.9 2432.56 744.95 2426.86 752.45C2421.16 759.65 2416.51 765.65 2412.91 770.45C2407.51 778.25 2401.66 786.65 2395.36 795.65C2389.36 804.65 2383.81 813.2 2378.71 821.3C2373.91 829.1 2370.61 835.55 2368.81 840.65C2367.31 845.75 2366.56 849.5 2366.56 851.9C2366.56 856.7 2368.51 859.1 2372.41 859.1C2375.11 859.1 2378.26 858.05 2381.86 855.95C2385.76 853.55 2389.66 850.85 2393.56 847.85C2398.66 843.65 2403.46 839.3 2407.96 834.8C2412.46 830 2417.11 824.75 2421.91 819.05C2423.11 819.05 2423.71 819.95 2423.71 821.75C2423.71 824.45 2423.11 826.55 2421.91 828.05C2418.01 832.55 2413.21 837.5 2407.51 842.9C2402.11 848.3 2396.71 853.1 2391.31 857.3C2387.41 860.6 2382.91 863.45 2377.81 865.85C2372.71 868.25 2367.76 869.45 2362.96 869.45C2356.06 869.45 2351.26 867.8 2348.56 864.5C2345.86 861.2 2344.51 857 2344.51 851.9C2344.51 845.9 2345.86 839.45 2348.56 832.55C2351.26 825.35 2354.26 818.6 2357.56 812.3C2353.66 817.1 2348.71 822.95 2342.71 829.85C2336.71 836.45 2331.31 842 2326.51 846.5C2319.91 852.5 2313.61 857.9 2307.61 862.7C2301.61 867.2 2295.31 869.45 2288.71 869.45ZM2430.26 869C2423.06 869 2417.96 867.35 2414.96 864.05C2411.96 860.75 2410.46 856.55 2410.46 851.45C2410.46 846.35 2411.66 840.8 2414.06 834.8C2416.16 828.5 2418.86 822.35 2422.16 816.35C2427.86 806.75 2434.31 797.15 2441.51 787.55C2449.01 777.65 2456.51 768.5 2464.01 760.1C2471.81 751.7 2478.71 744.5 2484.71 738.5C2490.41 732.8 2496.26 728.6 2502.26 725.9C2508.26 723.2 2513.36 721.4 2517.56 720.5C2522.06 719.3 2524.31 718.7 2524.31 718.7C2517.71 726.2 2508.71 736.85 2497.31 750.65C2486.21 764.45 2474.96 779.15 2463.56 794.75C2462.36 796.25 2460.11 799.4 2456.81 804.2C2453.81 809 2450.51 814.4 2446.91 820.4C2443.31 826.1 2440.16 831.8 2437.46 837.5C2435.06 842.9 2433.86 847.25 2433.86 850.55C2433.86 853.85 2435.66 855.35 2439.26 855.05C2443.16 854.75 2448.26 851.9 2454.56 846.5C2460.86 841.1 2467.61 834.5 2474.81 826.7C2482.01 818.9 2488.76 811.25 2495.06 803.75C2501.66 795.95 2507.06 789.5 2511.26 784.4C2514.56 780.5 2518.61 775.7 2523.41 770C2528.21 764 2533.16 757.85 2538.26 751.55C2543.36 745.25 2548.01 739.7 2552.21 734.9C2557.01 729.5 2562.11 725.75 2567.51 723.65C2572.91 721.25 2577.56 719.9 2581.46 719.6C2585.66 719 2587.76 718.7 2587.76 718.7C2585.36 721.7 2580.56 727.55 2573.36 736.25C2566.46 744.95 2558.66 755.3 2549.96 767.3C2541.26 779 2533.01 791.3 2525.21 804.2C2517.41 816.8 2511.41 828.8 2507.21 840.2C2505.11 845.3 2504.06 849.5 2504.06 852.8C2504.06 855.8 2504.81 857.9 2506.31 859.1C2507.81 860 2509.46 860.45 2511.26 860.45C2515.46 860.45 2520.11 858.65 2525.21 855.05C2530.61 851.45 2535.71 847.25 2540.51 842.45C2545.61 837.35 2550.11 832.55 2554.01 828.05C2557.91 823.55 2560.46 820.55 2561.66 819.05C2562.86 819.05 2563.46 819.95 2563.46 821.75C2563.46 824.45 2562.86 826.55 2561.66 828.05C2557.16 833.45 2551.61 839.3 2545.01 845.6C2538.71 851.9 2531.96 857.45 2524.76 862.25C2517.86 866.75 2510.96 869 2504.06 869C2496.56 869 2491.31 867.2 2488.31 863.6C2485.31 860 2483.81 855.5 2483.81 850.1C2483.81 845 2484.86 839.45 2486.96 833.45C2489.06 827.15 2491.61 821.3 2494.61 815.9C2491.01 819.5 2486.66 824.3 2481.56 830.3C2476.76 836 2471.36 841.85 2465.36 847.85C2459.36 853.85 2453.36 858.95 2447.36 863.15C2441.36 867.05 2435.66 869 2430.26 869ZM2572.21 870.8C2564.71 870.8 2559.46 869 2556.46 865.4C2553.46 861.8 2551.96 857.15 2551.96 851.45C2551.96 841.55 2555.56 830.3 2562.76 817.7C2566.96 810.5 2572.66 802.25 2579.86 792.95C2587.36 783.35 2595.76 773.3 2605.06 762.8C2614.36 752 2623.66 741.5 2632.96 731.3H2602.81L2607.76 725H2638.81C2647.21 716.3 2655.01 708.2 2662.21 700.7C2669.71 692.9 2675.86 686.6 2680.66 681.8C2693.86 668.6 2706.01 658.55 2717.11 651.65C2728.51 644.75 2737.51 641.3 2744.11 641.3C2739.31 645.5 2732.26 652.1 2722.96 661.1C2713.96 670.1 2703.91 680.15 2692.81 691.25C2682.01 702.35 2671.36 713.6 2660.86 725H2691.91L2686.96 731.3H2655.46C2649.76 737.9 2644.36 744.05 2639.26 749.75C2634.46 755.45 2630.26 760.85 2626.66 765.95C2612.56 785.15 2601.16 800.9 2592.46 813.2C2583.76 825.5 2578.06 834.8 2575.36 841.1C2573.26 846.2 2572.21 850.4 2572.21 853.7C2572.21 859.4 2574.91 862.25 2580.31 862.25C2584.81 862.25 2589.61 860.75 2594.71 857.75C2602.21 853.55 2609.71 847.55 2617.21 839.75C2625.01 831.65 2631.31 824.75 2636.11 819.05C2637.31 819.05 2637.91 819.95 2637.91 821.75C2637.91 824.45 2637.31 826.55 2636.11 828.05C2624.71 841.25 2614.06 851.75 2604.16 859.55C2594.26 867.05 2583.61 870.8 2572.21 870.8ZM2579.43 979.7C2570.73 979.7 2564.73 978.95 2561.43 977.45C2557.83 976.25 2556.03 975.2 2556.03 974.3C2556.03 973.1 2557.08 972.5 2559.18 972.5C2560.68 972.5 2562.18 972.5 2563.68 972.5C2565.18 972.8 2566.68 972.95 2568.18 972.95C2578.98 972.95 2589.78 969.65 2600.58 963.05C2611.38 956.45 2621.88 947.6 2632.08 936.5C2642.28 925.7 2652.03 913.7 2661.33 900.5C2670.63 887.3 2679.03 874.25 2686.53 861.35L2721.18 801.5C2717.28 806 2712.18 812 2705.88 819.5C2699.88 827 2693.28 834.5 2686.08 842C2678.88 849.5 2671.83 855.95 2664.93 861.35C2658.03 866.45 2651.58 869 2645.58 869C2638.38 869 2633.28 867.35 2630.28 864.05C2627.28 860.75 2625.78 856.55 2625.78 851.45C2625.78 846.35 2626.98 840.8 2629.38 834.8C2631.48 828.8 2634.18 822.8 2637.48 816.8C2643.18 807.2 2649.63 797.6 2656.83 788C2664.33 778.1 2671.83 768.95 2679.33 760.55C2687.13 751.85 2694.03 744.5 2700.03 738.5C2705.73 732.8 2711.58 728.6 2717.58 725.9C2723.58 723.2 2728.68 721.4 2732.88 720.5C2737.38 719.3 2739.63 718.7 2739.63 718.7C2733.03 726.2 2724.03 736.85 2712.63 750.65C2701.53 764.45 2690.28 779.15 2678.88 794.75C2677.68 796.25 2675.43 799.4 2672.13 804.2C2669.13 809 2665.83 814.4 2662.23 820.4C2658.63 826.1 2655.48 831.8 2652.78 837.5C2650.38 842.9 2649.18 847.25 2649.18 850.55C2649.18 853.85 2650.98 855.35 2654.58 855.05C2658.48 854.75 2663.58 851.9 2669.88 846.5C2676.18 841.1 2682.93 834.5 2690.13 826.7C2697.33 818.9 2704.08 811.25 2710.38 803.75C2716.98 795.95 2722.38 789.5 2726.58 784.4C2730.78 779.6 2735.73 773.6 2741.43 766.4C2747.13 759.2 2753.28 752 2759.88 744.8C2766.48 737.3 2773.38 731.15 2780.58 726.35C2788.08 721.25 2795.58 718.7 2803.08 718.7C2805.78 718.7 2807.43 719 2808.03 719.6C2797.23 724.7 2787.18 732.95 2777.88 744.35C2768.58 755.75 2759.73 769.1 2751.33 784.4C2742.93 799.7 2734.38 815.9 2725.68 833C2717.28 849.8 2708.28 866.3 2698.68 882.5C2689.08 899 2678.58 913.85 2667.18 927.05C2653.68 942.65 2639.28 955.25 2623.98 964.85C2608.38 974.75 2593.53 979.7 2579.43 979.7Z" fill="#FEFAEF"/>
<path d="M524.687 1081.49V1095.6C524.687 1101.58 525.077 1102.1 529.757 1102.23V1103.86H513.897V1102.23C518.512 1102.1 518.902 1101.58 518.902 1095.6V1064.98C518.902 1058.94 518.577 1058.48 513.897 1058.29V1056.73H531.902C543.797 1056.73 549.322 1060.43 549.322 1068.36C549.322 1071.16 548.477 1073.89 547.112 1075.71C545.162 1078.24 541.067 1080 536.192 1080.52V1081.1C538.402 1081.56 539.897 1082.21 541.392 1083.44C543.407 1085.2 544.642 1087.15 546.787 1091.96C549.972 1099.17 550.492 1100.08 551.792 1101.19C552.767 1102.03 553.677 1102.36 555.237 1102.42V1103.86H545.097C542.562 1096.77 539.832 1090.2 538.012 1087.02C536.452 1084.22 535.217 1082.92 533.267 1082.27C531.902 1081.75 530.277 1081.49 528.652 1081.49H524.687ZM524.687 1079.54H530.082C533.982 1079.54 537.167 1078.83 539.052 1077.53C541.652 1075.77 543.017 1072.78 543.017 1068.82C543.017 1061.99 538.987 1058.68 530.667 1058.68H524.687V1079.54ZM559.635 1080.26C559.635 1073.43 561.39 1067.84 565.03 1063.23C568.93 1058.35 574.585 1055.82 581.605 1055.82C588.69 1055.82 594.215 1058.29 598.18 1063.23C601.755 1067.78 603.575 1073.43 603.575 1080.26C603.575 1087.08 601.755 1092.8 598.18 1097.22C594.15 1102.23 588.69 1104.7 581.605 1104.7C574.585 1104.7 568.865 1102.1 565.03 1097.22C561.455 1092.67 559.635 1087.02 559.635 1080.26ZM566.2 1080.26C566.2 1086.43 567.37 1091.5 569.71 1095.86C572.31 1100.47 576.405 1102.94 581.605 1102.94C586.805 1102.94 590.9 1100.47 593.5 1095.86C595.84 1091.63 597.01 1086.56 597.01 1080.26C597.01 1073.95 595.84 1068.88 593.5 1064.66C590.9 1059.98 586.805 1057.57 581.605 1057.57C576.405 1057.57 572.31 1060.04 569.71 1064.66C567.37 1068.95 566.2 1074.08 566.2 1080.26ZM611.496 1080.26C611.496 1073.43 613.251 1067.84 616.891 1063.23C620.791 1058.35 626.446 1055.82 633.466 1055.82C640.551 1055.82 646.076 1058.29 650.041 1063.23C653.616 1067.78 655.436 1073.43 655.436 1080.26C655.436 1087.08 653.616 1092.8 650.041 1097.22C646.011 1102.23 640.551 1104.7 633.466 1104.7C626.446 1104.7 620.726 1102.1 616.891 1097.22C613.316 1092.67 611.496 1087.02 611.496 1080.26ZM618.061 1080.26C618.061 1086.43 619.231 1091.5 621.571 1095.86C624.171 1100.47 628.266 1102.94 633.466 1102.94C638.666 1102.94 642.761 1100.47 645.361 1095.86C647.701 1091.63 648.871 1086.56 648.871 1080.26C648.871 1073.95 647.701 1068.88 645.361 1064.66C642.761 1059.98 638.666 1057.57 633.466 1057.57C628.266 1057.57 624.171 1060.04 621.571 1064.66C619.231 1068.95 618.061 1074.08 618.061 1080.26ZM683.766 1058.29V1095.6C683.766 1099.43 684.026 1100.67 684.936 1101.38C685.586 1101.97 687.276 1102.23 689.876 1102.23V1103.86H671.676V1102.23C674.471 1102.23 676.031 1101.9 676.681 1101.25C677.526 1100.54 677.721 1099.24 677.721 1095.6V1058.29C666.086 1058.42 664.201 1059.91 662.576 1070.51L660.496 1070.38L661.666 1056.73H699.886L701.056 1070.38L698.976 1070.51C697.286 1059.91 695.466 1058.42 683.766 1058.29ZM704.646 1103.86V1102.29C706.856 1102.29 708.156 1101.97 708.741 1101.32C709.456 1100.54 709.456 1100.47 709.586 1095.6V1064.98C709.456 1060.82 709.456 1060.76 709.261 1060.17C708.806 1058.81 707.636 1058.29 704.646 1058.29V1056.73H737.471L738.511 1068.36L736.626 1068.49C735.066 1060.63 732.661 1058.68 724.341 1058.68H715.371V1078.44H722.066C729.281 1078.44 730.516 1077.53 731.231 1071.81H733.051V1087.08H731.231C730.776 1084.09 730.321 1082.86 729.411 1081.88C728.436 1080.91 725.901 1080.39 722.066 1080.39H715.371V1101.9H725.641C733.831 1101.9 736.171 1099.76 737.991 1090.79L739.811 1090.92L738.511 1103.86H704.646ZM745.779 1103.86V1102.29C747.989 1102.29 749.289 1101.97 749.874 1101.32C750.589 1100.54 750.589 1100.47 750.719 1095.6V1064.98C750.589 1060.82 750.589 1060.76 750.394 1060.17C749.939 1058.81 748.769 1058.29 745.779 1058.29V1056.73H764.109C770.804 1056.73 775.484 1057.57 778.669 1059.39C785.299 1063.16 788.744 1070.25 788.744 1080C788.744 1089.3 785.559 1096.38 779.644 1100.21C775.679 1102.75 770.349 1103.86 762.484 1103.86H745.779ZM756.634 1101.9H763.264C769.634 1101.9 774.639 1100.08 777.564 1096.7C780.554 1093.26 782.179 1087.86 782.179 1081.1C782.179 1074.86 780.944 1069.47 778.669 1065.57C775.939 1061.02 770.609 1058.68 762.809 1058.68H756.634V1101.9ZM817.132 1103.86V1102.23C822.397 1102.1 822.787 1101.58 822.787 1095.6V1064.98C822.787 1058.94 822.397 1058.55 817.132 1058.29V1056.73H834.422V1058.29C829.092 1058.55 828.702 1058.94 828.702 1064.98V1095.6C828.702 1101.58 829.157 1102.1 834.422 1102.23V1103.86H817.132ZM847.719 1061.47V1092.8C847.719 1098 847.914 1099.43 848.629 1100.47C849.409 1101.64 850.774 1102.16 853.374 1102.23V1103.86H839.074V1102.23C841.544 1102.23 842.909 1101.71 843.754 1100.47C844.664 1099.24 845.054 1096.7 845.054 1091.7V1065.5C845.054 1059.13 844.599 1058.48 839.724 1058.29V1056.73H851.229L878.334 1095.6V1068.88C878.334 1063.03 878.139 1061.15 877.359 1060.11C876.514 1058.94 875.084 1058.42 872.419 1058.29V1056.73H886.914V1058.29C882.039 1058.55 880.999 1060.3 880.999 1067.97V1104.05H877.294L847.719 1061.47ZM921.098 1061.47V1092.8C921.098 1098 921.293 1099.43 922.008 1100.47C922.788 1101.64 924.153 1102.16 926.753 1102.23V1103.86H912.453V1102.23C914.923 1102.23 916.288 1101.71 917.133 1100.47C918.043 1099.24 918.433 1096.7 918.433 1091.7V1065.5C918.433 1059.13 917.978 1058.48 913.103 1058.29V1056.73H924.608L951.713 1095.6V1068.88C951.713 1063.03 951.518 1061.15 950.738 1060.11C949.893 1058.94 948.463 1058.42 945.798 1058.29V1056.73H960.293V1058.29C955.418 1058.55 954.378 1060.3 954.378 1067.97V1104.05H950.673L921.098 1061.47ZM975.951 1087.54L973.871 1093.39C973.091 1095.47 972.636 1097.48 972.636 1098.72C972.636 1101.06 974.326 1102.1 978.096 1102.23V1103.86H962.886V1102.23C966.591 1102.23 968.736 1099.95 971.206 1093.39L985.051 1056.73L989.081 1056.27L1002.86 1095.53C1004.68 1100.86 1005.92 1102.1 1009.69 1102.23V1103.86H992.916V1102.23C996.231 1102.1 997.596 1101.32 997.596 1099.43C997.596 1098.65 997.336 1097.35 996.816 1095.73L994.086 1087.54H975.951ZM993.241 1085.13L985.311 1062.38L976.861 1085.13H993.241ZM1030.79 1058.29V1095.6C1030.79 1099.43 1031.05 1100.67 1031.96 1101.38C1032.61 1101.97 1034.3 1102.23 1036.9 1102.23V1103.86H1018.7V1102.23C1021.5 1102.23 1023.06 1101.9 1023.71 1101.25C1024.55 1100.54 1024.75 1099.24 1024.75 1095.6V1058.29C1013.11 1058.42 1011.23 1059.91 1009.6 1070.51L1007.52 1070.38L1008.69 1056.73H1046.91L1048.08 1070.38L1046 1070.51C1044.31 1059.91 1042.49 1058.42 1030.79 1058.29ZM1051.15 1056.73H1067.14V1058.29C1062.4 1058.55 1062.07 1058.94 1062.07 1064.98V1083.57C1062.07 1090.46 1062.72 1094.1 1064.41 1097.09C1066.43 1100.6 1069.94 1102.36 1074.81 1102.36C1080.53 1102.36 1084.82 1100.15 1086.97 1096.18C1088.4 1093.39 1089.05 1089.42 1089.05 1083.12V1068.88C1089.05 1063.03 1088.85 1061.15 1088.14 1060.11C1087.29 1058.87 1085.93 1058.35 1083.2 1058.29V1056.73H1097.69V1058.29C1095.16 1058.35 1093.86 1058.87 1092.95 1060.11C1092.04 1061.34 1091.71 1063.49 1091.71 1068.88V1083.31C1091.71 1090.98 1090.8 1095.21 1088.4 1098.52C1085.6 1102.49 1080.4 1104.7 1074.03 1104.7C1067.73 1104.7 1062.2 1102.42 1059.28 1098.65C1057 1095.73 1056.16 1092.02 1056.16 1085.26V1064.98C1056.16 1058.94 1055.83 1058.55 1051.15 1058.29V1056.73ZM1112.35 1081.49V1095.6C1112.35 1101.58 1112.74 1102.1 1117.42 1102.23V1103.86H1101.56V1102.23C1106.18 1102.1 1106.57 1101.58 1106.57 1095.6V1064.98C1106.57 1058.94 1106.24 1058.48 1101.56 1058.29V1056.73H1119.57C1131.46 1056.73 1136.99 1060.43 1136.99 1068.36C1136.99 1071.16 1136.14 1073.89 1134.78 1075.71C1132.83 1078.24 1128.73 1080 1123.86 1080.52V1081.1C1126.07 1081.56 1127.56 1082.21 1129.06 1083.44C1131.07 1085.2 1132.31 1087.15 1134.45 1091.96C1137.64 1099.17 1138.16 1100.08 1139.46 1101.19C1140.43 1102.03 1141.34 1102.36 1142.9 1102.42V1103.86H1132.76C1130.23 1096.77 1127.5 1090.2 1125.68 1087.02C1124.12 1084.22 1122.88 1082.92 1120.93 1082.27C1119.57 1081.75 1117.94 1081.49 1116.32 1081.49H1112.35ZM1112.35 1079.54H1117.75C1121.65 1079.54 1124.83 1078.83 1126.72 1077.53C1129.32 1075.77 1130.68 1072.78 1130.68 1068.82C1130.68 1061.99 1126.65 1058.68 1118.33 1058.68H1112.35V1079.54ZM1145.87 1103.86V1102.29C1148.08 1102.29 1149.38 1101.97 1149.97 1101.32C1150.68 1100.54 1150.68 1100.47 1150.81 1095.6V1064.98C1150.68 1060.82 1150.68 1060.76 1150.49 1060.17C1150.03 1058.81 1148.86 1058.29 1145.87 1058.29V1056.73H1178.7L1179.74 1068.36L1177.85 1068.49C1176.29 1060.63 1173.89 1058.68 1165.57 1058.68H1156.6V1078.44H1163.29C1170.51 1078.44 1171.74 1077.53 1172.46 1071.81H1174.28V1087.08H1172.46C1172 1084.09 1171.55 1082.86 1170.64 1081.88C1169.66 1080.91 1167.13 1080.39 1163.29 1080.39H1156.6V1101.9H1166.87C1175.06 1101.9 1177.4 1099.76 1179.22 1090.79L1181.04 1090.92L1179.74 1103.86H1145.87ZM1236.73 1088.12C1235.17 1088.12 1233.83 1087.58 1232.7 1086.5C1231.62 1085.37 1231.08 1084.03 1231.08 1082.47C1231.08 1080.91 1231.62 1079.59 1232.7 1078.5C1233.83 1077.38 1235.17 1076.81 1236.73 1076.81C1238.29 1076.81 1239.61 1077.38 1240.7 1078.5C1241.82 1079.59 1242.39 1080.91 1242.39 1082.47C1242.39 1084.03 1241.82 1085.37 1240.7 1086.5C1239.61 1087.58 1238.29 1088.12 1236.73 1088.12ZM1236.73 1085.72C1237.6 1085.72 1238.36 1085.39 1239.01 1084.74C1239.66 1084.09 1239.98 1083.34 1239.98 1082.47C1239.98 1081.6 1239.66 1080.84 1239.01 1080.19C1238.36 1079.54 1237.6 1079.22 1236.73 1079.22C1235.86 1079.22 1235.11 1079.54 1234.46 1080.19C1233.81 1080.84 1233.48 1081.6 1233.48 1082.47C1233.48 1083.34 1233.81 1084.09 1234.46 1084.74C1235.11 1085.39 1235.86 1085.72 1236.73 1085.72ZM1269.9 1103.86V1102.29C1272.11 1102.29 1273.41 1101.97 1274 1101.32C1274.71 1100.54 1274.71 1100.47 1274.84 1095.6V1064.98C1274.71 1060.82 1274.71 1060.76 1274.52 1060.17C1274.06 1058.81 1272.89 1058.29 1269.9 1058.29V1056.73H1287.65C1292.72 1056.73 1297.07 1057.44 1299.61 1058.61C1303.38 1060.43 1305.2 1063.36 1305.2 1067.65C1305.2 1073.82 1301.23 1077.27 1293.04 1078.31V1078.76C1296.23 1078.89 1298.24 1079.35 1300.52 1080.52C1304.94 1082.79 1307.02 1086.17 1307.02 1091.11C1307.02 1097.09 1304.16 1100.8 1298.31 1102.68C1295.84 1103.4 1291.74 1103.86 1287.32 1103.86H1269.9ZM1280.63 1077.59H1287.19C1294.99 1077.59 1299.02 1074.28 1299.02 1067.91C1299.02 1061.67 1294.99 1058.68 1286.61 1058.68H1280.63V1077.59ZM1280.63 1101.9H1286.93C1291.68 1101.9 1295.06 1101.06 1297.14 1099.24C1299.22 1097.55 1300.39 1094.43 1300.39 1090.59C1300.39 1086.17 1298.7 1082.99 1295.58 1081.3C1293.69 1080.32 1290.51 1079.74 1286.93 1079.74H1280.63V1101.9ZM1324.18 1087.54L1322.1 1093.39C1321.32 1095.47 1320.87 1097.48 1320.87 1098.72C1320.87 1101.06 1322.56 1102.1 1326.33 1102.23V1103.86H1311.12V1102.23C1314.82 1102.23 1316.97 1099.95 1319.44 1093.39L1333.28 1056.73L1337.31 1056.27L1351.09 1095.53C1352.91 1100.86 1354.15 1102.1 1357.92 1102.23V1103.86H1341.15V1102.23C1344.46 1102.1 1345.83 1101.32 1345.83 1099.43C1345.83 1098.65 1345.57 1097.35 1345.05 1095.73L1342.32 1087.54H1324.18ZM1341.47 1085.13L1333.54 1062.38L1325.09 1085.13H1341.47ZM1397.14 1071.61H1395.06C1394.48 1067.58 1393.57 1065.18 1391.81 1062.84C1389.15 1059.52 1385.18 1057.57 1380.96 1057.57C1376.28 1057.57 1371.92 1059.98 1369.58 1063.88C1367.11 1067.84 1365.81 1073.37 1365.81 1079.67C1365.81 1093.26 1372.31 1102.16 1382.13 1102.16C1389.34 1102.16 1395.19 1097.74 1397.73 1090.4L1399.61 1091.24C1398.18 1095.01 1396.56 1097.61 1394.28 1099.82C1390.97 1103.01 1386.03 1104.76 1380.31 1104.76C1374.46 1104.76 1369.19 1102.49 1365.36 1098.39C1361.33 1094.04 1359.25 1088.12 1359.25 1080.91C1359.25 1071.81 1362.56 1064.07 1368.41 1059.78C1371.73 1057.25 1376.34 1055.82 1380.7 1055.82C1383.23 1055.82 1386.09 1056.34 1388.95 1057.25C1392.01 1058.22 1392.66 1058.35 1393.76 1058.35C1394.67 1058.35 1395 1058.22 1397.14 1057.44V1071.61ZM1414.63 1084.68V1095.6C1414.63 1101.58 1415.02 1102.1 1419.7 1102.23V1103.86H1403.84V1102.23C1408.46 1102.1 1408.85 1101.64 1408.85 1095.6V1064.98C1408.85 1058.94 1408.52 1058.55 1403.84 1058.29V1056.73H1419.7V1058.29C1414.96 1058.55 1414.63 1058.94 1414.63 1064.98V1081.75L1430.1 1065.5C1432.12 1063.42 1433.16 1061.67 1433.16 1060.5C1433.16 1059.07 1432.05 1058.42 1429.19 1058.29V1056.73H1444.6V1058.29C1440.96 1058.55 1437.97 1060.37 1433.61 1065.05L1423.67 1075.64L1438.49 1096.96C1441.22 1100.8 1442.91 1102.03 1446.35 1102.42V1103.86H1435.63C1433.81 1100.67 1432.57 1098.65 1430.95 1096.25L1419.7 1079.48L1414.63 1084.68ZM1449.29 1103.86V1102.29C1451.5 1102.29 1452.8 1101.97 1453.38 1101.32C1454.1 1100.54 1454.1 1100.47 1454.23 1095.6V1064.98C1454.1 1060.82 1454.1 1060.76 1453.9 1060.17C1453.45 1058.81 1452.28 1058.29 1449.29 1058.29V1056.73H1482.11L1483.15 1068.36L1481.27 1068.49C1479.71 1060.63 1477.3 1058.68 1468.98 1058.68H1460.01V1078.44H1466.71C1473.92 1078.44 1475.16 1077.53 1475.87 1071.81H1477.69V1087.08H1475.87C1475.42 1084.09 1474.96 1082.86 1474.05 1081.88C1473.08 1080.91 1470.54 1080.39 1466.71 1080.39H1460.01V1101.9H1470.28C1478.47 1101.9 1480.81 1099.76 1482.63 1090.79L1484.45 1090.92L1483.15 1103.86H1449.29ZM1490.42 1103.86V1102.29C1492.63 1102.29 1493.93 1101.97 1494.52 1101.32C1495.23 1100.54 1495.23 1100.47 1495.36 1095.6V1064.98C1495.23 1060.82 1495.23 1060.76 1495.04 1060.17C1494.58 1058.81 1493.41 1058.29 1490.42 1058.29V1056.73H1508.75C1515.45 1056.73 1520.13 1057.57 1523.31 1059.39C1529.94 1063.16 1533.39 1070.25 1533.39 1080C1533.39 1089.3 1530.2 1096.38 1524.29 1100.21C1520.32 1102.75 1514.99 1103.86 1507.13 1103.86H1490.42ZM1501.28 1101.9H1507.91C1514.28 1101.9 1519.28 1100.08 1522.21 1096.7C1525.2 1093.26 1526.82 1087.86 1526.82 1081.1C1526.82 1074.86 1525.59 1069.47 1523.31 1065.57C1520.58 1061.02 1515.25 1058.68 1507.45 1058.68H1501.28V1101.9ZM1561.52 1103.86V1102.29C1563.73 1102.29 1565.03 1101.97 1565.61 1101.32C1566.33 1100.54 1566.33 1100.47 1566.46 1095.6V1064.98C1566.33 1060.82 1566.33 1060.76 1566.13 1060.17C1565.68 1058.81 1564.51 1058.29 1561.52 1058.29V1056.73H1579.26C1584.33 1056.73 1588.69 1057.44 1591.22 1058.61C1594.99 1060.43 1596.81 1063.36 1596.81 1067.65C1596.81 1073.82 1592.85 1077.27 1584.66 1078.31V1078.76C1587.84 1078.89 1589.86 1079.35 1592.13 1080.52C1596.55 1082.79 1598.63 1086.17 1598.63 1091.11C1598.63 1097.09 1595.77 1100.8 1589.92 1102.68C1587.45 1103.4 1583.36 1103.86 1578.94 1103.86H1561.52ZM1572.24 1077.59H1578.81C1586.61 1077.59 1590.64 1074.28 1590.64 1067.91C1590.64 1061.67 1586.61 1058.68 1578.22 1058.68H1572.24V1077.59ZM1572.24 1101.9H1578.55C1583.29 1101.9 1586.67 1101.06 1588.75 1099.24C1590.83 1097.55 1592 1094.43 1592 1090.59C1592 1086.17 1590.31 1082.99 1587.19 1081.3C1585.31 1080.32 1582.12 1079.74 1578.55 1079.74H1572.24V1101.9ZM1628.34 1081.17V1095.6C1628.34 1101.64 1628.8 1102.1 1634 1102.23V1103.86H1616.84V1102.23C1622.04 1102.1 1622.49 1101.58 1622.49 1095.6V1082.6L1610.01 1064.07C1607.02 1059.65 1605.66 1058.55 1602.73 1058.29V1056.73H1619.57V1058.29C1616.45 1058.42 1615.21 1059.07 1615.21 1060.5C1615.21 1061.47 1615.6 1062.25 1617.36 1064.92L1626.85 1079.41L1636.14 1065.7C1637.51 1063.68 1638.35 1061.8 1638.35 1060.69C1638.35 1059.13 1636.99 1058.48 1633.15 1058.29V1056.73H1648.23V1058.29C1644.79 1058.61 1642.64 1060.24 1639.26 1065.18L1628.34 1081.17ZM1674.15 1103.98L1674.61 1090.85H1676.75C1677.01 1094.88 1677.66 1096.96 1679.42 1099.04C1681.5 1101.45 1684.88 1102.75 1689.17 1102.75C1695.08 1102.75 1698.59 1099.63 1698.59 1094.3C1698.59 1089.16 1696.19 1086.69 1686.5 1082.01C1680.98 1079.35 1678.96 1078.11 1677.14 1076.16C1675.26 1074.15 1674.28 1071.61 1674.28 1068.49C1674.28 1064.66 1675.71 1061.41 1678.38 1059.07C1680.85 1056.92 1683.77 1055.95 1687.67 1055.95C1690.14 1055.95 1691.25 1056.08 1695.34 1057.05C1696.32 1057.25 1697.1 1057.38 1697.75 1057.38C1698.72 1057.38 1699.89 1057.05 1701.65 1056.4L1701.26 1069.21H1699.11C1698.85 1066.02 1698.33 1064.14 1697.29 1062.38C1695.47 1059.39 1692.16 1057.77 1687.93 1057.77C1684.81 1057.77 1682.6 1058.68 1681.04 1060.5C1679.87 1061.99 1679.16 1064.01 1679.16 1066.15C1679.16 1070.44 1681.24 1072.59 1688.97 1076.23C1697.1 1080.06 1700.15 1082.21 1701.97 1085.07C1703.27 1087.08 1703.79 1089.23 1703.79 1092.22C1703.79 1096.05 1702.56 1098.98 1700.09 1101.06C1697.36 1103.46 1693.78 1104.63 1689.49 1104.63C1686.96 1104.63 1685.33 1104.44 1680.78 1103.53C1680 1103.4 1679.29 1103.33 1678.64 1103.33C1677.6 1103.33 1676.43 1103.53 1674.15 1103.98ZM1748.87 1071.61H1746.79C1746.2 1067.58 1745.29 1065.18 1743.54 1062.84C1740.87 1059.52 1736.91 1057.57 1732.68 1057.57C1728 1057.57 1723.65 1059.98 1721.31 1063.88C1718.84 1067.84 1717.54 1073.37 1717.54 1079.67C1717.54 1093.26 1724.04 1102.16 1733.85 1102.16C1741.07 1102.16 1746.92 1097.74 1749.45 1090.4L1751.34 1091.24C1749.91 1095.01 1748.28 1097.61 1746.01 1099.82C1742.69 1103.01 1737.75 1104.76 1732.03 1104.76C1726.18 1104.76 1720.92 1102.49 1717.08 1098.39C1713.05 1094.04 1710.97 1088.12 1710.97 1080.91C1710.97 1071.81 1714.29 1064.07 1720.14 1059.78C1723.45 1057.25 1728.07 1055.82 1732.42 1055.82C1734.96 1055.82 1737.82 1056.34 1740.68 1057.25C1743.73 1058.22 1744.38 1058.35 1745.49 1058.35C1746.4 1058.35 1746.72 1058.22 1748.87 1057.44V1071.61ZM1755.7 1103.86V1102.23C1760.96 1102.1 1761.35 1101.58 1761.35 1095.6V1064.98C1761.35 1058.94 1760.96 1058.55 1755.7 1058.29V1056.73H1772.99V1058.29C1767.66 1058.55 1767.27 1058.94 1767.27 1064.98V1095.6C1767.27 1101.58 1767.72 1102.1 1772.99 1102.23V1103.86H1755.7ZM1778.29 1103.86V1102.29C1780.5 1102.29 1781.8 1101.97 1782.38 1101.32C1783.1 1100.54 1783.1 1100.47 1783.23 1095.6V1064.98C1783.1 1060.82 1783.1 1060.76 1782.9 1060.17C1782.45 1058.81 1781.28 1058.29 1778.29 1058.29V1056.73H1811.11L1812.15 1068.36L1810.27 1068.49C1808.71 1060.63 1806.3 1058.68 1797.98 1058.68H1789.01V1078.44H1795.71C1802.92 1078.44 1804.16 1077.53 1804.87 1071.81H1806.69V1087.08H1804.87C1804.42 1084.09 1803.96 1082.86 1803.05 1081.88C1802.08 1080.91 1799.54 1080.39 1795.71 1080.39H1789.01V1101.9H1799.28C1807.47 1101.9 1809.81 1099.76 1811.63 1090.79L1813.45 1090.92L1812.15 1103.86H1778.29ZM1827.42 1061.47V1092.8C1827.42 1098 1827.61 1099.43 1828.33 1100.47C1829.11 1101.64 1830.47 1102.16 1833.07 1102.23V1103.86H1818.77V1102.23C1821.24 1102.23 1822.61 1101.71 1823.45 1100.47C1824.36 1099.24 1824.75 1096.7 1824.75 1091.7V1065.5C1824.75 1059.13 1824.3 1058.48 1819.42 1058.29V1056.73H1830.93L1858.03 1095.6V1068.88C1858.03 1063.03 1857.84 1061.15 1857.06 1060.11C1856.21 1058.94 1854.78 1058.42 1852.12 1058.29V1056.73H1866.61V1058.29C1861.74 1058.55 1860.7 1060.3 1860.7 1067.97V1104.05H1856.99L1827.42 1061.47ZM1910.48 1071.61H1908.4C1907.81 1067.58 1906.9 1065.18 1905.15 1062.84C1902.48 1059.52 1898.52 1057.57 1894.29 1057.57C1889.61 1057.57 1885.26 1059.98 1882.92 1063.88C1880.45 1067.84 1879.15 1073.37 1879.15 1079.67C1879.15 1093.26 1885.65 1102.16 1895.46 1102.16C1902.68 1102.16 1908.53 1097.74 1911.06 1090.4L1912.95 1091.24C1911.52 1095.01 1909.89 1097.61 1907.62 1099.82C1904.3 1103.01 1899.36 1104.76 1893.64 1104.76C1887.79 1104.76 1882.53 1102.49 1878.69 1098.39C1874.66 1094.04 1872.58 1088.12 1872.58 1080.91C1872.58 1071.81 1875.9 1064.07 1881.75 1059.78C1885.06 1057.25 1889.68 1055.82 1894.03 1055.82C1896.57 1055.82 1899.43 1056.34 1902.29 1057.25C1905.34 1058.22 1905.99 1058.35 1907.1 1058.35C1908.01 1058.35 1908.33 1058.22 1910.48 1057.44V1071.61ZM1917.05 1103.86V1102.29C1919.26 1102.29 1920.56 1101.97 1921.14 1101.32C1921.86 1100.54 1921.86 1100.47 1921.99 1095.6V1064.98C1921.86 1060.82 1921.86 1060.76 1921.66 1060.17C1921.21 1058.81 1920.04 1058.29 1917.05 1058.29V1056.73H1949.87L1950.91 1068.36L1949.03 1068.49C1947.47 1060.63 1945.06 1058.68 1936.74 1058.68H1927.77V1078.44H1934.47C1941.68 1078.44 1942.92 1077.53 1943.63 1071.81H1945.45V1087.08H1943.63C1943.18 1084.09 1942.72 1082.86 1941.81 1081.88C1940.84 1080.91 1938.3 1080.39 1934.47 1080.39H1927.77V1101.9H1938.04C1946.23 1101.9 1948.57 1099.76 1950.39 1090.79L1952.21 1090.92L1950.91 1103.86H1917.05ZM2007.91 1088.12C2006.35 1088.12 2005 1087.58 2003.88 1086.5C2002.79 1085.37 2002.25 1084.03 2002.25 1082.47C2002.25 1080.91 2002.79 1079.59 2003.88 1078.5C2005 1077.38 2006.35 1076.81 2007.91 1076.81C2009.47 1076.81 2010.79 1077.38 2011.87 1078.5C2013 1079.59 2013.56 1080.91 2013.56 1082.47C2013.56 1084.03 2013 1085.37 2011.87 1086.5C2010.79 1087.58 2009.47 1088.12 2007.91 1088.12ZM2007.91 1085.72C2008.77 1085.72 2009.53 1085.39 2010.18 1084.74C2010.83 1084.09 2011.16 1083.34 2011.16 1082.47C2011.16 1081.6 2010.83 1080.84 2010.18 1080.19C2009.53 1079.54 2008.77 1079.22 2007.91 1079.22C2007.04 1079.22 2006.28 1079.54 2005.63 1080.19C2004.98 1080.84 2004.66 1081.6 2004.66 1082.47C2004.66 1083.34 2004.98 1084.09 2005.63 1084.74C2006.28 1085.39 2007.04 1085.72 2007.91 1085.72ZM2062.73 1103.86V1102.29C2064.94 1102.29 2066.24 1101.97 2066.82 1101.32C2067.54 1100.54 2067.54 1100.47 2067.67 1095.6V1064.98C2067.54 1060.82 2067.54 1060.76 2067.34 1060.17C2066.89 1058.81 2065.72 1058.29 2062.73 1058.29V1056.73H2081.06C2087.75 1056.73 2092.43 1057.57 2095.62 1059.39C2102.25 1063.16 2105.69 1070.25 2105.69 1080C2105.69 1089.3 2102.51 1096.38 2096.59 1100.21C2092.63 1102.75 2087.3 1103.86 2079.43 1103.86H2062.73ZM2073.58 1101.9H2080.21C2086.58 1101.9 2091.59 1100.08 2094.51 1096.7C2097.5 1093.26 2099.13 1087.86 2099.13 1081.1C2099.13 1074.86 2097.89 1069.47 2095.62 1065.57C2092.89 1061.02 2087.56 1058.68 2079.76 1058.68H2073.58V1101.9ZM2112.18 1103.86V1102.29C2114.39 1102.29 2115.69 1101.97 2116.27 1101.32C2116.99 1100.54 2116.99 1100.47 2117.12 1095.6V1064.98C2116.99 1060.82 2116.99 1060.76 2116.79 1060.17C2116.34 1058.81 2115.17 1058.29 2112.18 1058.29V1056.73H2145L2146.04 1068.36L2144.16 1068.49C2142.6 1060.63 2140.19 1058.68 2131.87 1058.68H2122.9V1078.44H2129.6C2136.81 1078.44 2138.05 1077.53 2138.76 1071.81H2140.58V1087.08H2138.76C2138.31 1084.09 2137.85 1082.86 2136.94 1081.88C2135.97 1080.91 2133.43 1080.39 2129.6 1080.39H2122.9V1101.9H2133.17C2141.36 1101.9 2143.7 1099.76 2145.52 1090.79L2147.34 1090.92L2146.04 1103.86H2112.18ZM2172.03 1104.11L2158.57 1066.15C2157.08 1061.93 2156.17 1060.24 2154.67 1059.26C2153.96 1058.74 2153.57 1058.61 2151.36 1058.29V1056.73H2168.39V1058.29C2166.37 1058.42 2165.92 1058.48 2165.07 1058.81C2164.1 1059.13 2163.51 1059.91 2163.51 1061.02C2163.51 1061.99 2163.9 1063.49 2164.88 1066.35L2175.8 1097.81L2186.72 1067C2187.69 1064.2 2188.02 1062.9 2188.02 1061.67C2188.02 1059.39 2186.59 1058.55 2182.36 1058.29V1056.73H2197.77V1058.29C2195.56 1058.55 2194.58 1058.94 2193.41 1060.04C2192.05 1061.28 2190.68 1063.68 2189.38 1067.19L2175.93 1104.11H2172.03ZM2200.92 1103.86V1102.29C2203.13 1102.29 2204.43 1101.97 2205.01 1101.32C2205.73 1100.54 2205.73 1100.47 2205.86 1095.6V1064.98C2205.73 1060.82 2205.73 1060.76 2205.53 1060.17C2205.08 1058.81 2203.91 1058.29 2200.92 1058.29V1056.73H2233.74L2234.78 1068.36L2232.9 1068.49C2231.34 1060.63 2228.93 1058.68 2220.61 1058.68H2211.64V1078.44H2218.34C2225.55 1078.44 2226.79 1077.53 2227.5 1071.81H2229.32V1087.08H2227.5C2227.05 1084.09 2226.59 1082.86 2225.68 1081.88C2224.71 1080.91 2222.17 1080.39 2218.34 1080.39H2211.64V1101.9H2221.91C2230.1 1101.9 2232.44 1099.76 2234.26 1090.79L2236.08 1090.92L2234.78 1103.86H2200.92ZM2242.18 1103.86V1102.29C2247.38 1102.1 2247.83 1101.64 2247.83 1095.66V1064.98C2247.83 1058.94 2247.44 1058.55 2242.18 1058.35V1056.73H2259.47V1058.35C2254.14 1058.55 2253.75 1058.94 2253.75 1064.98V1101.9H2262.91C2270.71 1101.9 2273.51 1099.37 2275.39 1090.66L2277.41 1090.92L2276.17 1103.86H2242.18ZM2281.82 1080.26C2281.82 1073.43 2283.57 1067.84 2287.21 1063.23C2291.11 1058.35 2296.77 1055.82 2303.79 1055.82C2310.87 1055.82 2316.4 1058.29 2320.36 1063.23C2323.94 1067.78 2325.76 1073.43 2325.76 1080.26C2325.76 1087.08 2323.94 1092.8 2320.36 1097.22C2316.33 1102.23 2310.87 1104.7 2303.79 1104.7C2296.77 1104.7 2291.05 1102.1 2287.21 1097.22C2283.64 1092.67 2281.82 1087.02 2281.82 1080.26ZM2288.38 1080.26C2288.38 1086.43 2289.55 1091.5 2291.89 1095.86C2294.49 1100.47 2298.59 1102.94 2303.79 1102.94C2308.99 1102.94 2313.08 1100.47 2315.68 1095.86C2318.02 1091.63 2319.19 1086.56 2319.19 1080.26C2319.19 1073.95 2318.02 1068.88 2315.68 1064.66C2313.08 1059.98 2308.99 1057.57 2303.79 1057.57C2298.59 1057.57 2294.49 1060.04 2291.89 1064.66C2289.55 1068.95 2288.38 1074.08 2288.38 1080.26ZM2342.97 1083.44V1095.6C2342.97 1101.58 2343.36 1102.1 2348.43 1102.23V1103.86H2332.18V1102.23C2336.8 1102.1 2337.19 1101.64 2337.19 1095.6V1064.98C2337.19 1058.94 2336.86 1058.48 2332.18 1058.29V1056.73H2350.06C2354.74 1056.73 2358.64 1057.38 2361.04 1058.48C2365.33 1060.5 2367.48 1064.27 2367.48 1069.79C2367.48 1076.03 2364.94 1080 2359.61 1081.88C2356.95 1082.86 2352.2 1083.44 2347.2 1083.44H2342.97ZM2342.97 1081.49H2347.59C2352.66 1081.49 2356.17 1080.58 2358.18 1078.76C2360.07 1077.01 2361.17 1073.89 2361.17 1070.05C2361.17 1062.45 2357.08 1058.68 2348.82 1058.68H2342.97V1081.49ZM2372.43 1103.86V1102.29C2374.64 1102.29 2375.94 1101.97 2376.52 1101.32C2377.24 1100.54 2377.24 1100.47 2377.37 1095.6V1064.98C2377.24 1060.82 2377.24 1060.76 2377.04 1060.17C2376.59 1058.81 2375.42 1058.29 2372.43 1058.29V1056.73H2405.25L2406.29 1068.36L2404.41 1068.49C2402.85 1060.63 2400.44 1058.68 2392.12 1058.68H2383.15V1078.44H2389.85C2397.06 1078.44 2398.3 1077.53 2399.01 1071.81H2400.83V1087.08H2399.01C2398.56 1084.09 2398.1 1082.86 2397.19 1081.88C2396.22 1080.91 2393.68 1080.39 2389.85 1080.39H2383.15V1101.9H2393.42C2401.61 1101.9 2403.95 1099.76 2405.77 1090.79L2407.59 1090.92L2406.29 1103.86H2372.43ZM2413.56 1103.86V1102.29C2415.77 1102.29 2417.07 1101.97 2417.66 1101.32C2418.37 1100.54 2418.37 1100.47 2418.5 1095.6V1064.98C2418.37 1060.82 2418.37 1060.76 2418.18 1060.17C2417.72 1058.81 2416.55 1058.29 2413.56 1058.29V1056.73H2431.89C2438.59 1056.73 2443.27 1057.57 2446.45 1059.39C2453.08 1063.16 2456.53 1070.25 2456.53 1080C2456.53 1089.3 2453.34 1096.38 2447.43 1100.21C2443.46 1102.75 2438.13 1103.86 2430.27 1103.86H2413.56ZM2424.42 1101.9H2431.05C2437.42 1101.9 2442.42 1100.08 2445.35 1096.7C2448.34 1093.26 2449.96 1087.86 2449.96 1081.1C2449.96 1074.86 2448.73 1069.47 2446.45 1065.57C2443.72 1061.02 2438.39 1058.68 2430.59 1058.68H2424.42V1101.9ZM2484.66 1103.86V1102.29C2486.87 1102.29 2488.17 1101.97 2488.75 1101.32C2489.47 1100.54 2489.47 1100.47 2489.6 1095.6V1064.98C2489.47 1060.82 2489.47 1060.76 2489.27 1060.17C2488.82 1058.81 2487.65 1058.29 2484.66 1058.29V1056.73H2502.4C2507.47 1056.73 2511.83 1057.44 2514.36 1058.61C2518.13 1060.43 2519.95 1063.36 2519.95 1067.65C2519.95 1073.82 2515.99 1077.27 2507.8 1078.31V1078.76C2510.98 1078.89 2513 1079.35 2515.27 1080.52C2519.69 1082.79 2521.77 1086.17 2521.77 1091.11C2521.77 1097.09 2518.91 1100.8 2513.06 1102.68C2510.59 1103.4 2506.5 1103.86 2502.08 1103.86H2484.66ZM2495.38 1077.59H2501.95C2509.75 1077.59 2513.78 1074.28 2513.78 1067.91C2513.78 1061.67 2509.75 1058.68 2501.36 1058.68H2495.38V1077.59ZM2495.38 1101.9H2501.69C2506.43 1101.9 2509.81 1101.06 2511.89 1099.24C2513.97 1097.55 2515.14 1094.43 2515.14 1090.59C2515.14 1086.17 2513.45 1082.99 2510.33 1081.3C2508.45 1080.32 2505.26 1079.74 2501.69 1079.74H2495.38V1101.9ZM2551.48 1081.17V1095.6C2551.48 1101.64 2551.93 1102.1 2557.13 1102.23V1103.86H2539.97V1102.23C2545.17 1102.1 2545.63 1101.58 2545.63 1095.6V1082.6L2533.15 1064.07C2530.16 1059.65 2528.79 1058.55 2525.87 1058.29V1056.73H2542.7V1058.29C2539.58 1058.42 2538.35 1059.07 2538.35 1060.5C2538.35 1061.47 2538.74 1062.25 2540.49 1064.92L2549.98 1079.41L2559.28 1065.7C2560.64 1063.68 2561.49 1061.8 2561.49 1060.69C2561.49 1059.13 2560.12 1058.48 2556.29 1058.29V1056.73H2571.37V1058.29C2567.92 1058.61 2565.78 1060.24 2562.4 1065.18L2551.48 1081.17ZM2607.17 1087.54L2605.09 1093.39C2604.31 1095.47 2603.86 1097.48 2603.86 1098.72C2603.86 1101.06 2605.55 1102.1 2609.32 1102.23V1103.86H2594.11V1102.23C2597.81 1102.23 2599.96 1099.95 2602.43 1093.39L2616.27 1056.73L2620.3 1056.27L2634.08 1095.53C2635.9 1100.86 2637.14 1102.1 2640.91 1102.23V1103.86H2624.14V1102.23C2627.45 1102.1 2628.82 1101.32 2628.82 1099.43C2628.82 1098.65 2628.56 1097.35 2628.04 1095.73L2625.31 1087.54H2607.17ZM2624.46 1085.13L2616.53 1062.38L2608.08 1085.13H2624.46ZM2676.42 1083.44V1095.6C2676.42 1101.58 2676.81 1102.1 2681.88 1102.23V1103.86H2665.63V1102.23C2670.24 1102.1 2670.63 1101.64 2670.63 1095.6V1064.98C2670.63 1058.94 2670.31 1058.48 2665.63 1058.29V1056.73H2683.5C2688.18 1056.73 2692.08 1057.38 2694.49 1058.48C2698.78 1060.5 2700.92 1064.27 2700.92 1069.79C2700.92 1076.03 2698.39 1080 2693.06 1081.88C2690.39 1082.86 2685.65 1083.44 2680.64 1083.44H2676.42ZM2676.42 1081.49H2681.03C2686.1 1081.49 2689.61 1080.58 2691.63 1078.76C2693.51 1077.01 2694.62 1073.89 2694.62 1070.05C2694.62 1062.45 2690.52 1058.68 2682.27 1058.68H2676.42V1081.49ZM2716.92 1080V1095.6C2716.92 1101.58 2717.31 1102.1 2721.99 1102.23V1103.86H2706V1102.23C2710.62 1102.1 2711.01 1101.64 2711.01 1095.6V1064.98C2711.01 1058.94 2710.68 1058.55 2706 1058.35V1056.73H2721.99V1058.35C2717.25 1058.55 2716.92 1058.94 2716.92 1064.98V1077.92H2741.49V1064.98C2741.49 1058.94 2741.17 1058.55 2736.42 1058.35V1056.73H2752.41V1058.35C2747.73 1058.55 2747.41 1058.94 2747.41 1064.98V1095.6C2747.41 1101.58 2747.8 1102.1 2752.41 1102.23V1103.86H2736.42V1102.23C2741.1 1102.1 2741.49 1101.58 2741.49 1095.6V1080H2716.92ZM2768.78 1087.54L2766.7 1093.39C2765.92 1095.47 2765.47 1097.48 2765.47 1098.72C2765.47 1101.06 2767.16 1102.1 2770.93 1102.23V1103.86H2755.72V1102.23C2759.42 1102.23 2761.57 1099.95 2764.04 1093.39L2777.88 1056.73L2781.91 1056.27L2795.69 1095.53C2797.51 1100.86 2798.75 1102.1 2802.52 1102.23V1103.86H2785.75V1102.23C2789.06 1102.1 2790.43 1101.32 2790.43 1099.43C2790.43 1098.65 2790.17 1097.35 2789.65 1095.73L2786.92 1087.54H2768.78ZM2786.07 1085.13L2778.14 1062.38L2769.69 1085.13H2786.07ZM2816.38 1081.49V1095.6C2816.38 1101.58 2816.77 1102.1 2821.45 1102.23V1103.86H2805.59V1102.23C2810.21 1102.1 2810.6 1101.58 2810.6 1095.6V1064.98C2810.6 1058.94 2810.27 1058.48 2805.59 1058.29V1056.73H2823.6C2835.49 1056.73 2841.02 1060.43 2841.02 1068.36C2841.02 1071.16 2840.17 1073.89 2838.81 1075.71C2836.86 1078.24 2832.76 1080 2827.89 1080.52V1081.1C2830.1 1081.56 2831.59 1082.21 2833.09 1083.44C2835.1 1085.2 2836.34 1087.15 2838.48 1091.96C2841.67 1099.17 2842.19 1100.08 2843.49 1101.19C2844.46 1102.03 2845.37 1102.36 2846.93 1102.42V1103.86H2836.79C2834.26 1096.77 2831.53 1090.2 2829.71 1087.02C2828.15 1084.22 2826.91 1082.92 2824.96 1082.27C2823.6 1081.75 2821.97 1081.49 2820.35 1081.49H2816.38ZM2816.38 1079.54H2821.78C2825.68 1079.54 2828.86 1078.83 2830.75 1077.53C2833.35 1075.77 2834.71 1072.78 2834.71 1068.82C2834.71 1061.99 2830.68 1058.68 2822.36 1058.68H2816.38V1079.54ZM2857.7 1060.11V1091.63C2857.7 1097.61 2857.89 1099.37 2858.67 1100.47C2859.45 1101.64 2860.82 1102.16 2863.42 1102.23V1103.86H2849.38V1102.23C2851.65 1102.16 2853.02 1101.64 2853.8 1100.47C2854.77 1099.24 2855.1 1096.7 2855.1 1091.63V1064.98C2855.1 1061.6 2854.84 1060.17 2854.12 1059.33C2853.41 1058.61 2852.76 1058.42 2850.22 1058.29V1056.73H2862.64L2877.91 1095.21L2893.12 1056.73H2905.21V1058.29C2900.53 1058.55 2900.21 1058.94 2900.21 1064.98V1095.6C2900.21 1101.58 2900.6 1102.1 2905.21 1102.23V1103.86H2889.42V1102.23C2893.97 1102.1 2894.42 1101.51 2894.42 1095.6V1060.04L2877.52 1103.27H2874.73L2857.7 1060.11ZM2921.38 1087.54L2919.3 1093.39C2918.52 1095.47 2918.07 1097.48 2918.07 1098.72C2918.07 1101.06 2919.76 1102.1 2923.53 1102.23V1103.86H2908.32V1102.23C2912.02 1102.23 2914.17 1099.95 2916.64 1093.39L2930.48 1056.73L2934.51 1056.27L2948.29 1095.53C2950.11 1100.86 2951.35 1102.1 2955.12 1102.23V1103.86H2938.35V1102.23C2941.66 1102.1 2943.03 1101.32 2943.03 1099.43C2943.03 1098.65 2942.77 1097.35 2942.25 1095.73L2939.52 1087.54H2921.38ZM2938.67 1085.13L2930.74 1062.38L2922.29 1085.13H2938.67ZM2994.34 1071.61H2992.26C2991.68 1067.58 2990.77 1065.18 2989.01 1062.84C2986.35 1059.52 2982.38 1057.57 2978.16 1057.57C2973.48 1057.57 2969.12 1059.98 2966.78 1063.88C2964.31 1067.84 2963.01 1073.37 2963.01 1079.67C2963.01 1093.26 2969.51 1102.16 2979.33 1102.16C2986.54 1102.16 2992.39 1097.74 2994.93 1090.4L2996.81 1091.24C2995.38 1095.01 2993.76 1097.61 2991.48 1099.82C2988.17 1103.01 2983.23 1104.76 2977.51 1104.76C2971.66 1104.76 2966.39 1102.49 2962.56 1098.39C2958.53 1094.04 2956.45 1088.12 2956.45 1080.91C2956.45 1071.81 2959.76 1064.07 2965.61 1059.78C2968.93 1057.25 2973.54 1055.82 2977.9 1055.82C2980.43 1055.82 2983.29 1056.34 2986.15 1057.25C2989.21 1058.22 2989.86 1058.35 2990.96 1058.35C2991.87 1058.35 2992.2 1058.22 2994.34 1057.44V1071.61ZM3001.17 1103.86V1102.23C3006.44 1102.1 3006.83 1101.58 3006.83 1095.6V1064.98C3006.83 1058.94 3006.44 1058.55 3001.17 1058.29V1056.73H3018.46V1058.29C3013.13 1058.55 3012.74 1058.94 3012.74 1064.98V1095.6C3012.74 1101.58 3013.2 1102.1 3018.46 1102.23V1103.86H3001.17ZM3025 1103.98L3025.45 1090.85H3027.6C3027.86 1094.88 3028.51 1096.96 3030.26 1099.04C3032.34 1101.45 3035.72 1102.75 3040.01 1102.75C3045.93 1102.75 3049.44 1099.63 3049.44 1094.3C3049.44 1089.16 3047.03 1086.69 3037.35 1082.01C3031.82 1079.35 3029.81 1078.11 3027.99 1076.16C3026.1 1074.15 3025.13 1071.61 3025.13 1068.49C3025.13 1064.66 3026.56 1061.41 3029.22 1059.07C3031.69 1056.92 3034.62 1055.95 3038.52 1055.95C3040.99 1055.95 3042.09 1056.08 3046.19 1057.05C3047.16 1057.25 3047.94 1057.38 3048.59 1057.38C3049.57 1057.38 3050.74 1057.05 3052.49 1056.4L3052.1 1069.21H3049.96C3049.7 1066.02 3049.18 1064.14 3048.14 1062.38C3046.32 1059.39 3043 1057.77 3038.78 1057.77C3035.66 1057.77 3033.45 1058.68 3031.89 1060.5C3030.72 1061.99 3030 1064.01 3030 1066.15C3030 1070.44 3032.08 1072.59 3039.82 1076.23C3047.94 1080.06 3051 1082.21 3052.82 1085.07C3054.12 1087.08 3054.64 1089.23 3054.64 1092.22C3054.64 1096.05 3053.4 1098.98 3050.93 1101.06C3048.2 1103.46 3044.63 1104.63 3040.34 1104.63C3037.8 1104.63 3036.18 1104.44 3031.63 1103.53C3030.85 1103.4 3030.13 1103.33 3029.48 1103.33C3028.44 1103.33 3027.27 1103.53 3025 1103.98ZM3082.23 1058.29V1095.6C3082.23 1099.43 3082.49 1100.67 3083.4 1101.38C3084.05 1101.97 3085.74 1102.23 3088.34 1102.23V1103.86H3070.14V1102.23C3072.93 1102.23 3074.49 1101.9 3075.14 1101.25C3075.99 1100.54 3076.18 1099.24 3076.18 1095.6V1058.29C3064.55 1058.42 3062.66 1059.91 3061.04 1070.51L3058.96 1070.38L3060.13 1056.73H3098.35L3099.52 1070.38L3097.44 1070.51C3095.75 1059.91 3093.93 1058.42 3082.23 1058.29Z" fill="#FEFAEF"/>
</g>
<defs>
<clipPath id="clip0_48_4534">
<rect width="1616" height="3611" fill="white" transform="matrix(0 -1 1 0 0 1616)"/>
</clipPath>
</defs>
</svg>
